<svg width="43" height="43" viewBox="0 0 43 43" fill="none" xmlns="http://www.w3.org/2000/svg">
<path d="M41.0708 5.98542L37.8854 2.13542C37.2667 1.35625 36.3271 0.875 35.25 0.875H7.75C6.67292 0.875 5.73333 1.35625 5.09167 2.13542L1.92917 5.98542C1.26458 6.76458 0.875 7.79583 0.875 8.89583V37.5417C0.875 40.0625 2.9375 42.125 5.45833 42.125H37.5417C40.0625 42.125 42.125 40.0625 42.125 37.5417V8.89583C42.125 7.79583 41.7354 6.76458 41.0708 5.98542ZM8.3 5.45833H34.7L36.5563 7.68125H6.46667L8.3 5.45833ZM5.45833 37.5417V12.3333H37.5417V37.5417H5.45833ZM24.8229 16.9167H18.1771V23.7917H12.3333L21.5 32.9583L30.6667 23.7917H24.8229V16.9167Z" fill="white"/>
</svg>
