<svg width="80" height="76" viewBox="0 0 80 76" fill="none" xmlns="http://www.w3.org/2000/svg">
<g clip-path="url(#clip0_863_521)">
<path d="M40 29.4167C47.0416 29.4167 52.75 23.7083 52.75 16.6667C52.75 9.62505 47.0416 3.91669 40 3.91669C32.9584 3.91669 27.25 9.62505 27.25 16.6667C27.25 23.7083 32.9584 29.4167 40 29.4167Z" stroke="white" stroke-width="5" stroke-linecap="round"/>
<path d="M48.9509 9.02079C49.9604 7.27229 51.4658 5.86239 53.2766 4.96939C55.0874 4.07639 57.1223 3.74049 59.124 4.00399C61.1258 4.26749 63.0044 5.11869 64.5224 6.44999C66.0404 7.78119 67.1295 9.53269 67.6521 11.4829C68.1746 13.4331 68.1072 15.4945 67.4582 17.4064C66.8092 19.3182 65.6078 20.9947 64.006 22.2238C62.4042 23.4529 60.4739 24.1794 58.4592 24.3115C56.4445 24.4435 54.4359 23.9752 52.6874 22.9657" stroke="white" stroke-width="5"/>
<path d="M31.049 9.02079C30.0395 7.27229 28.5341 5.86239 26.7233 4.96939C24.9125 4.07639 22.8776 3.74049 20.8759 4.00399C18.8741 4.26749 16.9955 5.11869 15.4775 6.44999C13.9595 7.78119 12.8704 9.53269 12.3478 11.4829C11.8253 13.4331 11.8927 15.4945 12.5417 17.4064C13.1907 19.3182 14.3921 20.9947 15.9939 22.2238C17.5957 23.4529 19.526 24.1794 21.5407 24.3115C23.5554 24.4435 25.564 23.9752 27.3125 22.9657" stroke="white" stroke-width="5"/>
<path d="M40 39.5417C64.9522 39.5417 67.6351 63.8355 67.9236 69.0597C67.954 69.6111 67.5106 70.0417 66.9583 70.0417H13.0416C12.4894 70.0417 12.046 69.6111 12.0764 69.0597C12.3649 63.8355 15.0477 39.5417 40 39.5417Z" stroke="white" stroke-width="5" stroke-linecap="round"/>
<path d="M45.5262 39.9784L43.68 38.2927L40.5779 41.6903L45.1164 42.4446L45.5262 39.9784ZM66.3385 59.875L63.937 60.5698L64.4592 62.375H66.3385V59.875ZM57.7918 36.9583C64.2974 36.9583 68.4778 40.9437 71.2585 45.998C74.0563 51.0834 75.1583 56.8187 75.5083 59.1509L80.4531 58.4089C80.0721 55.8712 78.862 49.4457 75.6392 43.5879C72.3993 37.6988 66.8508 31.9583 57.7918 31.9583V36.9583ZM47.3724 41.664C49.9225 38.8711 53.2574 36.9583 57.7918 36.9583V31.9583C51.6179 31.9583 47.0067 34.6492 43.68 38.2927L47.3724 41.664ZM45.1164 42.4446C56.8335 44.3917 61.7895 53.1469 63.937 60.5698L68.74 59.1802C66.3472 50.9094 60.4002 39.9159 45.9361 37.5122L45.1164 42.4446ZM77.02 57.375H66.3385V62.375H77.02V57.375ZM75.5083 59.1509C75.3599 58.162 76.147 57.375 77.02 57.375V62.375C79.0761 62.375 80.7771 60.5679 80.4531 58.4089L75.5083 59.1509Z" fill="white"/>
<path d="M34.4739 39.9784L34.8837 42.4446L39.4222 41.6904L36.3201 38.2927L34.4739 39.9784ZM13.6617 59.875V62.375H15.5409L16.0632 60.5698L13.6617 59.875ZM22.2083 36.9583C26.7427 36.9583 30.0777 38.8711 32.6277 41.664L36.3201 38.2927C32.9935 34.6492 28.3823 31.9583 22.2083 31.9583V36.9583ZM4.49173 59.1509C4.84173 56.8187 5.94384 51.0834 8.74164 45.998C11.5223 40.9437 15.7027 36.9583 22.2083 36.9583V31.9583C13.1494 31.9583 7.60084 37.6988 4.36094 43.5878C1.13814 49.4457 -0.072065 55.8712 -0.452865 58.4088L4.49173 59.1509ZM2.98003 57.375C3.85303 57.375 4.64013 58.162 4.49173 59.1509L-0.452865 58.4088C-0.776965 60.5679 0.923635 62.375 2.98003 62.375V57.375ZM13.6617 57.375H2.98003V62.375H13.6617V57.375ZM16.0632 60.5698C18.2107 53.1469 23.1666 44.3917 34.8837 42.4446L34.0641 37.5122C19.5999 39.9159 13.653 50.9094 11.2601 59.1802L16.0632 60.5698Z" fill="white"/>
</g>
<defs>
<clipPath id="clip0_863_521">
<rect width="80" height="76" fill="white"/>
</clipPath>
</defs>
</svg>
